<?xml version="1.0" encoding="UTF-8"?>
<svg width="800" height="400" viewBox="0 0 800 400" fill="none" xmlns="http://www.w3.org/2000/svg">
  <!-- Background with Grid -->
  <defs>
    <pattern id="smallGrid" width="20" height="20" patternUnits="userSpaceOnUse">
      <path d="M 20 0 L 0 0 0 20" fill="none" stroke="#7F5AF0" stroke-width="0.5" stroke-opacity="0.1"/>
    </pattern>
    <pattern id="grid" width="100" height="100" patternUnits="userSpaceOnUse">
      <rect width="100" height="100" fill="url(#smallGrid)"/>
      <path d="M 100 0 L 0 0 0 100" fill="none" stroke="#7F5AF0" stroke-width="1" stroke-opacity="0.2"/>
    </pattern>
    <linearGradient id="cardGradient" x1="0" y1="0" x2="1" y2="1">
      <stop offset="0%" stop-color="#7F5AF0" stop-opacity="0.2"/>
      <stop offset="100%" stop-color="#2CB67D" stop-opacity="0.2"/>
    </linearGradient>
  </defs>
  
  <!-- Main Background -->
  <rect width="800" height="400" fill="url(#grid)"/>
  
  <!-- Platform Interface -->
  <g transform="translate(50, 50)">
    <!-- Main Dashboard Panel -->
    <rect x="0" y="0" width="700" height="300" rx="15" fill="#1A1A1A" filter="url(#glow)"/>
    
    <!-- Top Navigation -->
    <rect x="20" y="20" width="660" height="40" rx="8" fill="#2A2A2A"/>
    <circle cx="45" cy="40" r="8" fill="#7F5AF0"/>
    <circle cx="75" cy="40" r="8" fill="#2CB67D"/>
    <circle cx="105" cy="40" r="8" fill="#FF5470"/>
    
    <!-- Side Menu -->
    <rect x="20" y="80" width="160" height="200" rx="8" fill="#2A2A2A"/>
    <g transform="translate(40, 100)">
      <!-- Menu Items -->
      <rect width="120" height="30" rx="6" fill="url(#cardGradient)"/>
      <rect y="40" width="120" height="30" rx="6" fill="#3A3A3A"/>
      <rect y="80" width="120" height="30" rx="6" fill="#3A3A3A"/>
      <rect y="120" width="120" height="30" rx="6" fill="#3A3A3A"/>
    </g>
    
    <!-- Main Content Area -->
    <g transform="translate(200, 80)">
      <!-- Stats Cards -->
      <g transform="translate(0, 0)">
        <rect width="140" height="80" rx="8" fill="#2A2A2A"/>
        <text x="20" y="30" fill="#7F5AF0" font-size="24" font-weight="bold">85%</text>
        <text x="20" y="50" fill="#ffffff" font-size="12">Growth Rate</text>
      </g>
      
      <g transform="translate(160, 0)">
        <rect width="140" height="80" rx="8" fill="#2A2A2A"/>
        <text x="20" y="30" fill="#2CB67D" font-size="24" font-weight="bold">$2.5M</text>
        <text x="20" y="50" fill="#ffffff" font-size="12">Funding</text>
      </g>
      
      <g transform="translate(320, 0)">
        <rect width="140" height="80" rx="8" fill="#2A2A2A"/>
        <text x="20" y="30" fill="#FF5470" font-size="24" font-weight="bold">12</text>
        <text x="20" y="50" fill="#ffffff" font-size="12">Investors</text>
      </g>
      
      <!-- Graph Area -->
      <rect y="100" width="460" height="180" rx="8" fill="#2A2A2A"/>
      
      <!-- Graph Lines -->
      <path d="M20 260 C100 200, 200 220, 440 140" 
            stroke="#7F5AF0" 
            stroke-width="3"
            fill="none">
        <animate attributeName="stroke-dashoffset" from="1000" to="0" dur="2s"/>
      </path>
      
      <path d="M20 260 C100 230, 200 180, 440 160" 
            stroke="#2CB67D" 
            stroke-width="3"
            fill="none">
        <animate attributeName="stroke-dashoffset" from="1000" to="0" dur="2s" begin="0.5s"/>
      </path>
      
      <!-- Data Points -->
      <circle cx="20" cy="260" r="4" fill="#7F5AF0"/>
      <circle cx="100" cy="200" r="4" fill="#7F5AF0"/>
      <circle cx="200" cy="220" r="4" fill="#7F5AF0"/>
      <circle cx="440" cy="140" r="4" fill="#7F5AF0"/>
      
      <circle cx="20" cy="260" r="4" fill="#2CB67D"/>
      <circle cx="100" cy="230" r="4" fill="#2CB67D"/>
      <circle cx="200" cy="180" r="4" fill="#2CB67D"/>
      <circle cx="440" cy="160" r="4" fill="#2CB67D"/>
    </g>
  </g>
  
  <!-- Floating Elements -->
  <g>
    <circle cx="700" cy="50" r="20" fill="url(#cardGradient)">
      <animate attributeName="r" values="20;25;20" dur="3s" repeatCount="indefinite"/>
    </circle>
    <circle cx="650" cy="350" r="15" fill="url(#cardGradient)">
      <animate attributeName="r" values="15;20;15" dur="4s" repeatCount="indefinite"/>
    </circle>
  </g>
  
  <!-- Glow Effect -->
  <defs>
    <filter id="glow">
      <feGaussianBlur stdDeviation="4" result="blur"/>
      <feComposite in="SourceGraphic" in2="blur" operator="over"/>
    </filter>
  </defs>
</svg> 