<?xml version="1.0" encoding="UTF-8"?>
<svg width="288" height="288" viewBox="0 0 288 288" fill="none" xmlns="http://www.w3.org/2000/svg">
  <!-- Success Pattern -->
  <defs>
    <linearGradient id="successGradient" x1="0%" y1="0%" x2="100%" y2="100%">
      <stop offset="0%" stop-color="#7F5AF0" stop-opacity="0.2"/>
      <stop offset="50%" stop-color="#2CB67D" stop-opacity="0.2"/>
      <stop offset="100%" stop-color="#FF5470" stop-opacity="0.2"/>
    </linearGradient>
    
    <!-- Glow Effect -->
    <filter id="glow">
      <feGaussianBlur stdDeviation="4" result="blur"/>
      <feComposite in="SourceGraphic" in2="blur" operator="over"/>
    </filter>
  </defs>
  
  <!-- Background Elements -->
  <path d="M144 0L288 144L144 288L0 144L144 0Z" fill="url(#successGradient)" filter="url(#glow)"/>
  
  <!-- Decorative Lines -->
  <g transform="translate(144 144)">
    <!-- Radiating Lines -->
    <g transform="rotate(0)">
      <line x1="0" y1="-120" x2="0" y2="-60" stroke="#7F5AF0" stroke-width="2" stroke-opacity="0.2"/>
    </g>
    <g transform="rotate(60)">
      <line x1="0" y1="-120" x2="0" y2="-60" stroke="#2CB67D" stroke-width="2" stroke-opacity="0.2"/>
    </g>
    <g transform="rotate(120)">
      <line x1="0" y1="-120" x2="0" y2="-60" stroke="#FF5470" stroke-width="2" stroke-opacity="0.2"/>
    </g>
    <g transform="rotate(180)">
      <line x1="0" y1="-120" x2="0" y2="-60" stroke="#7F5AF0" stroke-width="2" stroke-opacity="0.2"/>
    </g>
    <g transform="rotate(240)">
      <line x1="0" y1="-120" x2="0" y2="-60" stroke="#2CB67D" stroke-width="2" stroke-opacity="0.2"/>
    </g>
    <g transform="rotate(300)">
      <line x1="0" y1="-120" x2="0" y2="-60" stroke="#FF5470" stroke-width="2" stroke-opacity="0.2"/>
    </g>
  </g>
  
  <!-- Central Elements -->
  <circle cx="144" cy="144" r="40" fill="#7F5AF0" fill-opacity="0.1" stroke="#7F5AF0" stroke-width="2" stroke-opacity="0.3"/>
  <circle cx="144" cy="144" r="20" fill="#2CB67D" fill-opacity="0.1" stroke="#2CB67D" stroke-width="2" stroke-opacity="0.3"/>
  
  <!-- Success Checkmark -->
  <path d="M134 144L142 152L154 136" stroke="#FF5470" stroke-width="3" stroke-linecap="round" stroke-linejoin="round"/>
</svg> 